<svg xmlns="http://www.w3.org/2000/svg" viewBox="0 0 1019 313" preserveAspectRatio="xMidYMid" width="1019" height="313" style="shape-rendering: auto; display: block; background: rgb(255, 255, 255);" xmlns:xlink="http://www.w3.org/1999/xlink"><g><linearGradient y2="0" y1="0" x2="1" x1="0" id="lg-0.6143950071098413">
  <stop offset="0" stop-color="#3185fc"></stop>
  <stop offset="1" stop-color="#5cd6d6"></stop>
</linearGradient><path opacity="0.26" fill="url(#lg-0.6143950071098413)" d="M 1105 157 C 1105 318 803 539 650 589 C 497 639 209 573 115 443 C 21 313 10 -8 104 -138 C 198 -268 501 -339 654 -289 C 807 -239 1105 -4 1105 157">
  <animate values="M 1105 157 C 1105 318 803 539 650 589 C 497 639 209 573 115 443 C 21 313 10 -8 104 -138 C 198 -268 501 -339 654 -289 C 807 -239 1105 -4 1105 157;M 1099 157 C 1099 338 829 554 657 610 C 485 666 91 685 -16 538 C -123 391 -71 -41 36 -188 C 143 -335 478 -333 650 -277 C 822 -221 1099 -24 1099 157;M 871 157 C 871 266 714 430 610 464 C 506 498 258 474 194 386 C 130 298 157 36 221 -53 C 285 -142 481 -108 585 -74 C 689 -40 871 48 871 157;M 1105 157 C 1105 318 803 539 650 589 C 497 639 209 573 115 443 C 21 313 10 -8 104 -138 C 198 -268 501 -339 654 -289 C 807 -239 1105 -4 1105 157" begin="-2.5s" keySplines="0.3 0.1 0.7 0.9;0.3 0.1 0.7 0.9;0.3 0.1 0.7 0.9" keyTimes="0;0.3333333333333333;0.6666666666666666;1" repeatCount="indefinite" dur="10s" attributeName="d"></animate>
</path><path opacity="0.26" fill="url(#lg-0.6143950071098413)" d="M 879 157 C 879 272 714 411 604 447 C 494 483 291 458 223 365 C 155 272 116 13 184 -80 C 252 -173 485 -143 595 -107 C 705 -71 879 42 879 157">
  <animate values="M 879 157 C 879 272 714 411 604 447 C 494 483 291 458 223 365 C 155 272 116 13 184 -80 C 252 -173 485 -143 595 -107 C 705 -71 879 42 879 157;M 1073 157 C 1073 326 786 459 625 511 C 464 563 197 593 98 456 C -1 319 -46 -38 53 -175 C 152 -312 501 -365 662 -313 C 823 -261 1073 -12 1073 157;M 1150 157 C 1150 343 850 601 673 659 C 496 717 85 695 -24 544 C -133 393 -97 -54 12 -205 C 121 -356 508 -440 685 -382 C 862 -324 1150 -29 1150 157;M 879 157 C 879 272 714 411 604 447 C 494 483 291 458 223 365 C 155 272 116 13 184 -80 C 252 -173 485 -143 595 -107 C 705 -71 879 42 879 157" begin="-2.5s" keySplines="0.3 0.1 0.7 0.9;0.3 0.1 0.7 0.9;0.3 0.1 0.7 0.9" keyTimes="0;0.3333333333333333;0.6666666666666666;1" repeatCount="indefinite" dur="10s" attributeName="d"></animate>
</path><path opacity="0.26" fill="url(#lg-0.6143950071098413)" d="M 973 157 C 973 291 755 481 628 522 C 501 563 258 504 179 396 C 100 288 41 -18 120 -126 C 199 -234 496 -234 623 -193 C 750 -152 973 23 973 157">
  <animate values="M 973 157 C 973 291 755 481 628 522 C 501 563 258 504 179 396 C 100 288 41 -18 120 -126 C 199 -234 496 -234 623 -193 C 750 -152 973 23 973 157;M 846 157 C 846 247 656 319 571 347 C 486 375 302 419 249 346 C 196 273 220 58 273 -15 C 326 -88 508 -127 593 -99 C 678 -71 846 67 846 157;M 989 157 C 989 283 720 396 600 435 C 480 474 213 527 139 425 C 65 323 87 5 161 -97 C 235 -199 488 -187 608 -148 C 728 -109 989 31 989 157;M 973 157 C 973 291 755 481 628 522 C 501 563 258 504 179 396 C 100 288 41 -18 120 -126 C 199 -234 496 -234 623 -193 C 750 -152 973 23 973 157" begin="-2.5s" keySplines="0.3 0.1 0.7 0.9;0.3 0.1 0.7 0.9;0.3 0.1 0.7 0.9" keyTimes="0;0.3333333333333333;0.6666666666666666;1" repeatCount="indefinite" dur="10s" attributeName="d"></animate>
</path><path opacity="0.26" fill="url(#lg-0.6143950071098413)" d="M 751 157 C 751 225 628 302 563 323 C 498 344 352 355 312 300 C 272 245 289 80 329 25 C 369 -30 498 -28 563 -7 C 628 14 751 89 751 157">
  <animate values="M 751 157 C 751 225 628 302 563 323 C 498 344 352 355 312 300 C 272 245 289 80 329 25 C 369 -30 498 -28 563 -7 C 628 14 751 89 751 157;M 803 157 C 803 250 684 393 596 422 C 508 451 299 423 245 348 C 191 273 181 32 235 -43 C 289 -118 508 -138 596 -109 C 684 -80 803 64 803 157;M 850 157 C 850 251 679 376 590 405 C 501 434 343 393 288 317 C 233 241 206 52 261 -24 C 316 -100 505 -132 594 -103 C 683 -74 850 63 850 157;M 751 157 C 751 225 628 302 563 323 C 498 344 352 355 312 300 C 272 245 289 80 329 25 C 369 -30 498 -28 563 -7 C 628 14 751 89 751 157" begin="-2.5s" keySplines="0.3 0.1 0.7 0.9;0.3 0.1 0.7 0.9;0.3 0.1 0.7 0.9" keyTimes="0;0.3333333333333333;0.6666666666666666;1" repeatCount="indefinite" dur="10s" attributeName="d"></animate>
</path><path opacity="0.26" fill="url(#lg-0.6143950071098413)" d="M 874 157 C 874 252 678 367 587 396 C 496 425 327 407 271 330 C 215 253 186 39 242 -38 C 298 -115 494 -106 585 -77 C 676 -48 874 62 874 157">
  <animate values="M 874 157 C 874 252 678 367 587 396 C 496 425 327 407 271 330 C 215 253 186 39 242 -38 C 298 -115 494 -106 585 -77 C 676 -48 874 62 874 157;M 1159 157 C 1159 348 855 602 673 661 C 491 720 62 718 -50 563 C -162 408 -68 -26 44 -181 C 156 -336 470 -341 652 -282 C 834 -223 1159 -34 1159 157;M 845 157 C 845 249 670 353 582 381 C 494 409 308 416 254 342 C 200 268 209 53 263 -22 C 317 -97 489 -80 577 -52 C 665 -24 845 65 845 157;M 874 157 C 874 252 678 367 587 396 C 496 425 327 407 271 330 C 215 253 186 39 242 -38 C 298 -115 494 -106 585 -77 C 676 -48 874 62 874 157" begin="-2.5s" keySplines="0.3 0.1 0.7 0.9;0.3 0.1 0.7 0.9;0.3 0.1 0.7 0.9" keyTimes="0;0.3333333333333333;0.6666666666666666;1" repeatCount="indefinite" dur="10s" attributeName="d"></animate>
</path><path opacity="0.26" fill="url(#lg-0.6143950071098413)" d="M 1165 157 C 1165 352 832 518 647 578 C 462 638 40 738 -74 581 C -188 424 -73 -27 41 -184 C 155 -341 496 -432 681 -372 C 866 -312 1165 -38 1165 157">
  <animate values="M 1165 157 C 1165 352 832 518 647 578 C 462 638 40 738 -74 581 C -188 424 -73 -27 41 -184 C 155 -341 496 -432 681 -372 C 866 -312 1165 -38 1165 157;M 1159 157 C 1159 323 805 530 647 581 C 489 632 170 609 72 474 C -26 339 -10 -14 88 -149 C 186 -284 500 -352 658 -301 C 816 -250 1159 -9 1159 157;M 920 157 C 920 269 706 398 599 433 C 492 468 264 474 198 383 C 132 292 136 24 202 -67 C 268 -158 494 -159 601 -124 C 708 -89 920 45 920 157;M 1165 157 C 1165 352 832 518 647 578 C 462 638 40 738 -74 581 C -188 424 -73 -27 41 -184 C 155 -341 496 -432 681 -372 C 866 -312 1165 -38 1165 157" begin="-2.5s" keySplines="0.3 0.1 0.7 0.9;0.3 0.1 0.7 0.9;0.3 0.1 0.7 0.9" keyTimes="0;0.3333333333333333;0.6666666666666666;1" repeatCount="indefinite" dur="10s" attributeName="d"></animate>
</path><path opacity="0.26" fill="url(#lg-0.6143950071098413)" d="M 1002 157 C 1002 310 763 444 618 491 C 473 538 221 555 131 432 C 41 309 -27 -45 63 -168 C 153 -291 468 -209 613 -162 C 758 -115 1002 4 1002 157">
  <animate values="M 1002 157 C 1002 310 763 444 618 491 C 473 538 221 555 131 432 C 41 309 -27 -45 63 -168 C 153 -291 468 -209 613 -162 C 758 -115 1002 4 1002 157;M 1017 157 C 1017 320 788 487 633 537 C 478 587 203 581 107 449 C 11 317 13 -2 109 -134 C 205 -266 493 -321 648 -271 C 803 -221 1017 -6 1017 157;M 965 157 C 965 296 763 488 631 531 C 499 574 230 531 148 419 C 66 307 31 -19 113 -131 C 195 -243 474 -183 606 -140 C 738 -97 965 18 965 157;M 1002 157 C 1002 310 763 444 618 491 C 473 538 221 555 131 432 C 41 309 -27 -45 63 -168 C 153 -291 468 -209 613 -162 C 758 -115 1002 4 1002 157" begin="-2.5s" keySplines="0.3 0.1 0.7 0.9;0.3 0.1 0.7 0.9;0.3 0.1 0.7 0.9" keyTimes="0;0.3333333333333333;0.6666666666666666;1" repeatCount="indefinite" dur="10s" attributeName="d"></animate>
</path><path opacity="0.26" fill="url(#lg-0.6143950071098413)" d="M 1099 157 C 1099 323 783 462 625 513 C 467 564 157 618 59 484 C -39 350 -5 -12 93 -146 C 191 -280 475 -275 633 -224 C 791 -173 1099 -9 1099 157">
  <animate values="M 1099 157 C 1099 323 783 462 625 513 C 467 564 157 618 59 484 C -39 350 -5 -12 93 -146 C 191 -280 475 -275 633 -224 C 791 -173 1099 -9 1099 157;M 870 157 C 870 259 696 398 599 430 C 502 462 317 423 257 340 C 197 257 200 59 260 -24 C 320 -107 498 -139 595 -108 C 692 -77 870 55 870 157;M 777 157 C 777 234 641 313 568 337 C 495 361 374 350 329 288 C 284 226 273 79 318 17 C 363 -45 499 -60 572 -36 C 645 -12 777 80 777 157;M 1099 157 C 1099 323 783 462 625 513 C 467 564 157 618 59 484 C -39 350 -5 -12 93 -146 C 191 -280 475 -275 633 -224 C 791 -173 1099 -9 1099 157" begin="-2.5s" keySplines="0.3 0.1 0.7 0.9;0.3 0.1 0.7 0.9;0.3 0.1 0.7 0.9" keyTimes="0;0.3333333333333333;0.6666666666666666;1" repeatCount="indefinite" dur="10s" attributeName="d"></animate>
</path><g></g></g></svg>