<svg xmlns="http://www.w3.org/2000/svg" viewBox="0 0 600 400" preserveAspectRatio="xMidYMid" width="600" height="400" style="shape-rendering: auto; display: block; background: rgb(255, 255, 255);" xmlns:xlink="http://www.w3.org/1999/xlink"><g><g opacity="0.14" transform="translate(51.87582771763141,31.37498664436086) scale(100)">
  <path stroke-width="0" fill="#0033ff" d="M2.7600000000000002 0 C2.7600000000000002 0.72 3.0444204434254107 1.321931981477651 2.62121506177483 1.9044242174276131 S1.5376475962073655 2.4024237490246616 0.852886904474855 2.6249159849746238 S-0.3164543700423188 3.3039153487462602 -1.0012150617748294 3.081423112796298 S-1.809681522824274 2.2047795322771884 -2.2328869044748547 1.6222872963272263 S-3.24 0.7200000000000004 -3.24 3.9678556292374245e-16 S-2.6560922861254364 -1.0397950603772634 -2.2328869044748556 -1.6222872963272257 S-1.6859757535073405 -2.8589308768463355 -1.00121506177483 -3.0814231127962977 S0.16812621274234374 -2.8474082209245863 0.8528869044748544 -2.624915984974624 S2.198009680124249 -2.486916453377576 2.6212150617748295 -1.9044242174276138 S2.7600000000000002 -0.7200000000000006 2.7600000000000002 -6.760050331293391e-16">
    <animateTransform values="0;72" repeatCount="indefinite" dur="20s" type="rotate" attributeName="transform"></animateTransform>
  </path>
</g><g opacity="0.14" transform="translate(2.250993261157703,-2.35001602676698) scale(100)">
  <path stroke-width="0" fill="#0054ff" d="M3.3120000000000003 0 C3.3120000000000003 0.864 3.653304532110493 1.586318377773181 3.145458074129796 2.2853090609131357 S1.8451771154488388 2.882908498829594 1.0234642853698261 3.1498991819695488 S-0.3797452440507826 3.9646984184955123 -1.2014580741297953 3.6977077353555576 S-2.171617827389129 2.645735438732626 -2.679464285369826 1.9467447555926716 S-3.8880000000000003 0.8640000000000004 -3.8880000000000003 4.76142675508491e-16 S-3.1873107433505234 -1.2477540724527163 -2.6794642853698267 -1.946744755592671 S-2.0231709042088086 -3.4307170522156025 -1.2014580741297962 -3.697707735355557 S0.2017514552908125 -3.4168898651095034 1.0234642853698253 -3.149899181969549 S2.6376116161490986 -2.984299744053091 3.1454580741297957 -2.2853090609131366 S3.3120000000000003 -0.8640000000000008 3.3120000000000003 -8.112060397552068e-16">
    <animateTransform values="0;72" repeatCount="indefinite" dur="10s" type="rotate" attributeName="transform"></animateTransform>
  </path>
</g><g opacity="0.14" transform="translate(-116.84860943437917,-83.29002243747374) scale(100)">
  <path stroke-width="0" fill="#006eff" d="M4.636799999999999 0 C4.636799999999999 1.2095999999999998 5.114626344954688 2.2208457288824532 4.403641303781713 3.1994326852783894 S2.5832479616283734 4.03607189836143 1.4328499995177562 4.409858854757367 S-0.5316433416710953 5.550577785893716 -1.682041303781713 5.176790829497779 S-3.0402649583447796 3.7040296142256754 -3.7512499995177553 2.7254426578297393 S-5.443199999999999 1.2096000000000005 -5.443199999999999 6.665997457118872e-16 S-4.462235040690731 -1.746855701433802 -3.751249999517756 -2.7254426578297384 S-2.832439265892332 -4.803003873101842 -1.6820413037817143 -5.1767908294977785 S0.2824520374071373 -4.783645811153304 1.432849999517755 -4.409858854757368 S3.6926562626087374 -4.178019641674327 4.403641303781713 -3.1994326852783903 S4.636799999999999 -1.209600000000001 4.636799999999999 -1.1356884556572892e-15">
    <animateTransform values="0;72" repeatCount="indefinite" dur="6.666666666666666s" type="rotate" attributeName="transform"></animateTransform>
  </path>
</g><g opacity="0.14" transform="translate(-366.9577750950067,-253.264035899958) scale(100)">
  <path stroke-width="0" fill="#3185fc" d="M7.418880000000001 0 C7.418880000000001 1.93536 8.183402151927503 3.5533531662119255 7.0458260860507425 5.119092296445424 S4.133196738605399 6.457715037378291 2.2925599992284105 7.055774167611789 S-0.8506293466737529 8.880924457429947 -2.6912660860507414 8.282865327196449 S-4.864423933351649 5.926447382761083 -6.00199999922841 4.360708252527584 S-8.70912 1.935360000000001 -8.70912 1.0665595931390197e-15 S-7.139576065105173 -2.7949691222940842 -6.001999999228412 -4.360708252527583 S-4.531902825427732 -7.68480619696295 -2.6912660860507436 -8.282865327196449 S0.45192325985142023 -7.653833297845288 2.2925599992284087 -7.05577416761179 S5.9082500201739805 -6.684831426678924 7.045826086050742 -5.119092296445426 S7.41888 -1.9353600000000017 7.418880000000001 -1.8171015290516634e-15">
    <animateTransform values="0;72" repeatCount="indefinite" dur="5s" type="rotate" attributeName="transform"></animateTransform>
  </path>
</g><g></g></g></svg>